<svg xmlns="http://www.w3.org/2000/svg" viewBox="0 0 86.8 33"><defs><style>.cls-1{fill:#fff;}.cls-2{fill:#3e5553;}.cls-3{fill:#fca00a;}</style></defs><g id="Layer_2" data-name="Layer 2"><g id="Layer_1-2" data-name="Layer 1"><g id="Layer_2-2" data-name="Layer 2"><g id="Layer_1-2-2" data-name="Layer 1-2"><g id="Layer_2-2-2" data-name="Layer 2-2"><g id="Layer_1-2-2-2" data-name="Layer 1-2-2"><rect class="cls-1" width="33" height="33"/><polygon class="cls-2" points="25.78 16.1 10 25.21 10 6.99 25.78 16.1"/><path class="cls-1" d="M38.62,32V11.56h9.44v2.91H42.48v5.71h5.28v2.91H42.48v6h5.58V32Z"/><path class="cls-1" d="M53.22,32V27L49.06,11.56H53l1.26,5.17.54,6h.76l.52-6,1.26-5.17h3.93L57.1,27v5Z"/><path class="cls-1" d="M62.89,32V11.56h9.44v2.91H66.75v5.71H72v2.91H66.75v6h5.58V32Z"/><path class="cls-1" d="M41.5,9.66a3,3,0,0,1-1.58-.32,1.25,1.25,0,0,1-.53-1V6.25h.82V8.41a.77.77,0,0,0,.31.62,1.93,1.93,0,0,0,1,.19A1.69,1.69,0,0,0,42.4,9a.77.77,0,0,0,.31-.62V6.46a1.84,1.84,0,0,0-.18-.8.9.9,0,0,0-.73-.42L41,5.11a2.71,2.71,0,0,1-1-.31,1.08,1.08,0,0,1-.45-.56,3.39,3.39,0,0,1-.15-.89V1.43a1.42,1.42,0,0,1,.22-.78,1.2,1.2,0,0,1,.66-.42A4.49,4.49,0,0,1,41.49.1,2.74,2.74,0,0,1,43,.42a1.23,1.23,0,0,1,.5,1V3.34h-.83v-2a.74.74,0,0,0-.31-.61,2.3,2.3,0,0,0-1.82,0,.77.77,0,0,0-.3.61v2a1.91,1.91,0,0,0,.18.88,1,1,0,0,0,.75.37l.81.12A2.78,2.78,0,0,1,43,5a1.06,1.06,0,0,1,.45.57,2.7,2.7,0,0,1,.14.85V8.27a1.18,1.18,0,0,1-.51,1A2.84,2.84,0,0,1,41.5,9.66Z"/><path class="cls-1" d="M49.18,10.61a2.65,2.65,0,0,1-1.28-.19,1,1,0,0,1-.54-.76,3,3,0,0,1-1.58-.31,1.13,1.13,0,0,1-.5-1V1.44a1.13,1.13,0,0,1,.5-1,3.08,3.08,0,0,1,1.58-.3,3.16,3.16,0,0,1,1.6.3,1.16,1.16,0,0,1,.49,1V8.35a1.21,1.21,0,0,1-.31.85,1.72,1.72,0,0,1-1,.39.63.63,0,0,0,.3.47,1.33,1.33,0,0,0,.71.11ZM47.36,9.19a1.83,1.83,0,0,0,1-.18.65.65,0,0,0,.29-.6v-7A.66.66,0,0,0,48.36.8a2.67,2.67,0,0,0-1.89,0,.72.72,0,0,0-.29.61,17,17,0,0,1-.06,1.76,16.64,16.64,0,0,0,0,1.73V6.59c0,.58,0,1.2.05,1.82a.7.7,0,0,0,.29.6A1.76,1.76,0,0,0,47.36,9.19Z"/><path class="cls-1" d="M53.35,9.66a2.9,2.9,0,0,1-1.56-.31,1.13,1.13,0,0,1-.5-1V.19h.85V8.42a.64.64,0,0,0,.3.59,1.77,1.77,0,0,0,.93.19,1.56,1.56,0,0,0,.92-.2.63.63,0,0,0,.29-.59V.19h.84V8.35a1.1,1.1,0,0,1-.49,1A2.88,2.88,0,0,1,53.35,9.66Z"/><path class="cls-1" d="M56.79,9.59,58.25.18h1.8l1.46,9.41h-.85l-.41-2.92H58.06l-.41,2.92Zm1.35-3.42h2l-.28-2L59.4.72h-.5l-.47,3.46Z"/><path class="cls-1" d="M63,9.59V.18h2a3,3,0,0,1,1.55.31,1.21,1.21,0,0,1,.52,1v3a1.29,1.29,0,0,1-.3.82,1.37,1.37,0,0,1-.83.41l1.44,3.8h-.91l-1.36-3.7h-1.2v3.7Zm.85-4.2H65a1.66,1.66,0,0,0,.93-.19.72.72,0,0,0,.31-.62v-3A.79.79,0,0,0,65.93,1,1.72,1.72,0,0,0,65,.67H63.88Z"/><path class="cls-1" d="M68.91,9.59V.18h3.65V.67h-2.8v4h2.62v.49H69.76v4h2.8v.5Z"/><path class="cls-3" d="M80.7,32.32c-2.13,0-3.64-.48-4.55-1.43s-1.41-2.51-1.48-4.7V23.44a6.13,6.13,0,0,1,.09-1.35h3.89c0,.85-.07,1.7-.07,2.54s0,1.62.07,2.34a2,2,0,0,0,.57,1.35,2.12,2.12,0,0,0,1.49.47,1.89,1.89,0,0,0,1.4-.47A2.31,2.31,0,0,0,82.67,27a7.61,7.61,0,0,1,.07-1.26,6.22,6.22,0,0,0,0-1.22,8.1,8.1,0,0,0-.07-1.3,4.21,4.21,0,0,0-.42-1.47,1.76,1.76,0,0,0-1.14-.85l-2.38-.62A6.44,6.44,0,0,1,76.27,19,4.38,4.38,0,0,1,75,17a10.14,10.14,0,0,1-.44-2.84V11.08a9.45,9.45,0,0,1,.71-3.52,3.88,3.88,0,0,1,1.93-2A8.25,8.25,0,0,1,80.71,5a6,6,0,0,1,4.45,1.41A7.09,7.09,0,0,1,86.7,11.1V13c0,.74,0,1.46-.07,2.15h-4V10.31A1.77,1.77,0,0,0,82.15,9a2.17,2.17,0,0,0-1.45-.46A2.11,2.11,0,0,0,79.23,9a2.09,2.09,0,0,0-.55,1.34c-.05.65-.08,1.3-.08,1.95a15.41,15.41,0,0,0,.08,1.92,3.29,3.29,0,0,0,.42,1.47,1.8,1.8,0,0,0,1.21.81l2.1.54A6.06,6.06,0,0,1,85,18.24a4.65,4.65,0,0,1,1.34,2.06,9.76,9.76,0,0,1,.46,2.89v3c-.09,2.19-.6,3.75-1.51,4.7S82.84,32.32,80.7,32.32Z"/></g></g></g></g></g></g></svg>